<?xml version="1.0" encoding="UTF-8" standalone="no"?>
<svg
   viewBox="0 0 16 16"
   width="16"
   height="16"
   version="1.1"
   id="svg1"
   sodipodi:docname="gattn-robot-symbolic.svg"
   inkscape:version="1.4.4 (dcaf3e7d9e, 2026-05-05)"
   xmlns:inkscape="http://www.inkscape.org/namespaces/inkscape"
   xmlns:sodipodi="http://sodipodi.sourceforge.net/DTD/sodipodi-0.dtd"
   xmlns="http://www.w3.org/2000/svg"
   xmlns:svg="http://www.w3.org/2000/svg">
  <defs
     id="defs1" />
  <sodipodi:namedview
     id="namedview1"
     pagecolor="#505050"
     bordercolor="#eeeeee"
     borderopacity="1"
     inkscape:showpageshadow="0"
     inkscape:pageopacity="0"
     inkscape:pagecheckerboard="0"
     inkscape:deskcolor="#505050"
     inkscape:zoom="50.646523"
     inkscape:cx="10.839836"
     inkscape:cy="5.8444288"
     inkscape:window-width="2560"
     inkscape:window-height="1355"
     inkscape:window-x="0"
     inkscape:window-y="0"
     inkscape:window-maximized="1"
     inkscape:current-layer="svg1" />
  <path
     id="rect1"
     style="fill:#000000;stroke-width:0.707107"
     d="M 4.9199219 -0.13867188 A 1.5 1.5 0 0 0 3.4199219 1.3613281 A 1.5 1.5 0 0 0 4.4199219 2.7753906 L 4.4199219 5.3613281 L 5.4199219 5.3613281 L 5.4199219 2.7753906 A 1.5 1.5 0 0 0 6.4199219 1.3613281 A 1.5 1.5 0 0 0 4.9199219 -0.13867188 z M 11.582031 -0.13867188 A 1.5 1.5 0 0 0 10.082031 1.3613281 A 1.5 1.5 0 0 0 11.082031 2.7753906 L 11.082031 5.3613281 L 12.082031 5.3613281 L 12.082031 2.7753906 A 1.5 1.5 0 0 0 13.082031 1.3613281 A 1.5 1.5 0 0 0 11.582031 -0.13867188 z " />
  <path
     id="rect2"
     style="fill:#000000;stroke:none;stroke-width:1;stroke-dasharray:none;fill-opacity:1"
     d="M 4.0371094 5 C 3.047064 5 2.25 5.797064 2.25 6.7871094 L 2.25 13.212891 C 2.25 14.202936 3.047064 15 4.0371094 15 L 12.462891 15 C 13.452936 15 14.25 14.202936 14.25 13.212891 L 14.25 6.7871094 C 14.25 5.797064 13.452936 5 12.462891 5 L 4.0371094 5 z M 4.5546875 6.828125 L 6.9238281 6.828125 C 7.0879066 6.8281249 7.2207032 6.9609215 7.2207031 7.125 L 7.2207031 9.2636719 C 7.2207031 9.4277503 7.0879065 9.5585938 6.9238281 9.5585938 L 4.5546875 9.5585938 C 4.3906091 9.5585937 4.2597657 9.4277503 4.2597656 9.2636719 L 4.2597656 7.125 C 4.2597657 6.9609216 4.390609 6.828125 4.5546875 6.828125 z M 9.734375 6.828125 L 11.789062 6.828125 C 12.040649 6.828125 12.242187 7.0316163 12.242188 7.2832031 L 12.242188 9.796875 C 12.242188 10.048462 12.040649 10.25 11.789062 10.25 L 9.734375 10.25 C 9.4827883 10.25 9.28125 10.048462 9.28125 9.796875 L 9.28125 7.2832031 C 9.28125 7.0316163 9.4827883 6.828125 9.734375 6.828125 z M 4.3496094 11.724609 L 12.251953 12.279297 L 12.152344 13.699219 L 4.25 13.142578 L 4.3496094 11.724609 z " />
</svg>
